<?xml version="1.0" encoding="UTF-8" standalone="no"?>
<!-- Created with Inkscape (http://www.inkscape.org/) -->

<svg
   xmlns:dc="http://purl.org/dc/elements/1.1/"
   xmlns:cc="http://creativecommons.org/ns#"
   xmlns:rdf="http://www.w3.org/1999/02/22-rdf-syntax-ns#"
   xmlns:svg="http://www.w3.org/2000/svg"
   xmlns="http://www.w3.org/2000/svg"
   xmlns:sodipodi="http://sodipodi.sourceforge.net/DTD/sodipodi-0.dtd"
   xmlns:inkscape="http://www.inkscape.org/namespaces/inkscape"
   width="12.75in"
   height="12.19271in"
   viewBox="0 0 323.85001 309.69482"
   version="1.1"
   id="svg3676"
   inkscape:version="0.92.3 (2405546, 2018-03-11)"
   sodipodi:docname="logo for github.svg">
  <defs
     id="defs3670" />
  <sodipodi:namedview
     id="base"
     pagecolor="#ffffff"
     bordercolor="#666666"
     borderopacity="1.0"
     inkscape:pageopacity="0.0"
     inkscape:pageshadow="2"
     inkscape:zoom="0.35"
     inkscape:cx="726.55269"
     inkscape:cy="277.66101"
     inkscape:document-units="mm"
     inkscape:current-layer="layer1"
     showgrid="false"
     fit-margin-top="5"
     fit-margin-right="5"
     fit-margin-bottom="5"
     fit-margin-left="5"
     inkscape:window-width="1920"
     inkscape:window-height="1017"
     inkscape:window-x="-8"
     inkscape:window-y="-8"
     inkscape:window-maximized="1"
     units="in" />
  <metadata
     id="metadata3673">
    <rdf:RDF>
      <cc:Work
         rdf:about="">
        <dc:format>image/svg+xml</dc:format>
        <dc:type
           rdf:resource="http://purl.org/dc/dcmitype/StillImage" />
        <dc:title></dc:title>
      </cc:Work>
    </rdf:RDF>
  </metadata>
  <g
     inkscape:label="Layer 1"
     inkscape:groupmode="layer"
     id="layer1"
     transform="translate(335.54498,52.88306)">
    <path
       inkscape:connector-curvature="0"
       id="path11-5-2-1-2-8"
       d="m -179.90794,-49.555802 -69.1343,-0.08742 V 76.577598 l -83.6409,-1.2438 c 1.8939,12.2311 10.4537,23.140096 21.7675,28.087592 l -0.1042,0.1039 c 6.2989,2.4109 12.9392,8.2395 16.3756,13.9904 2.4511,3.3681 3.8467,7.6312 4.9755,11.6112 0.694,4.9496 1.929,9.222 4.4566,13.5774 4.0815,7.3743 10.8932,13.0172 18.76,15.9618 l 1.659,0.5153 1.6565,1.5569 1.8661,1.2418 1.9693,0.9323 2.1783,0.5209 2.2789,0.2051 2.1767,-0.2051 2.1765,-0.5209 2.0722,-0.8263 1.865,-1.2439 1.6608,-1.4526 1.3462,-1.7611 h 0.104 c 0.097,-7.406 4.1325,-14.0463 10.8815,-17.2052 h -0.1034 c 14.7359,-3.2778 30.8922,3.2714 38.9723,16.0662 l 0.104,-0.1038 c 7.4755,17.3751 19.1899,34.304 32.5432,47.7789 h -0.1034 c 2.504,12.0718 6.8987,21.96 14.5102,31.71489 7.584,1.05453 16.3092,4.70421 22.4901,9.22581 6.1961,-1.68889 12.296,-0.55581 17.7218,2.79879 v -0.10388 c 4.3127,4.0962 11.748604,1.0263 12.026104,-4.8715 l -0.1069,0.1044 c -11.082604,-13.79291 -13.540004,-32.39011 -6.423204,-48.61001 2.092804,-4.3625 4.353404,-8.0676 7.564404,-11.7114 3.5618,-4.1607 4.0473,-3.695 8.5013,-6.6358 9.769,-6.0795 19.5564,-12.1158 29.43329,-18.033 h -0.10339 c 4.78181,0.1662 7.4581,-5.6225 4.45561,-9.2237 h 0.10689 l -1.24489,-1.4516 -0.41431,-1.8655 0.41431,-1.864 1.138,-1.5575 1.76209,-0.8284 1.86561,0.1049 1.7621,0.8284 1.14059,1.5544 0.31091,1.8655 c 6.85379,-5.4957 14.44599,-10.0548 22.49329,-13.5774 v -0.1034 l 0.8273,-1.7622 0.82949,-1.8639 1.24381,-3.7321 0.51829,-1.9678 0.4128,-1.9705 0.62442,-3.9377 -1.24701,-5.8043 -0.4114,-1.4521 -0.31459,-1.4511 -0.82632,-2.9026 c 3.88702,-3.5022 5.6343,-8.656192 4.45641,-13.782092 v 0 c -0.54139,-3.1661 -3.374,-7.0549 -6.1132,-8.707 -0.85069,-6.1363 -4.63421,-11.6651 -10.16109,-14.5107 l -3.9357,-44.359599 c -4.8006,-0.477599 -9.3821,-1.2764 -14.09592,-2.279999 l -1.97029,-0.5183 -1.3489,-1.141 -1.55279,-1.0346 -1.55501,-0.933201 -1.65809,-0.831501 -1.76242,-0.723001 -1.65499,-0.519297 -1.8677,-0.414002 -1.76321,-0.3116 -1.86398,-0.2077 h -1.86501 l -1.7621,0.104902 -1.8685,0.309599 -1.7613,0.3105 -1.7632,0.520401 -0.1027,0.102899 c -4.0759,2.357699 -10.0661,4.454099 -14.7161,5.180999 -5.0549,-3.9185 -12.372504,-4.763101 -18.139304,-1.968299 V 19.2648 c -8.5387,1.867699 -17.8337,-0.450501 -24.5645,-6.0135 v 0.106399 c -7.7708,1.2734 -15.9371,0.058 -23.0105,-3.4236002 l -1.8629,-1.032999 -0.7276,-0.932701 -0.9322,-0.8293998 -1.0345,-0.518401 c -1.8373,-0.999001 -4.0912,-0.4396 -5.7015,0.7235 V 7.2413 c -3.0795,-2.2846 -6.8972,-3.775803 -10.7778,-3.5233 z m 91.458004,77.9198 c 18.0813,8.5901 10.4399,29.179 21.7551,38.4571 -2.8332,-9.9536 1.34191,-15.0233 8.09831,-22.2421 -5.89222,17.4681 3.6703,27.629 6.46348,43.3788 0.55121,2.6505 0.82791,5.4636 0.82791,8.4408 0,5.273292 -0.9112,10.004292 -2.7337,14.191892 -1.78351,4.1489 -4.38119,7.7743 -7.79331,10.8763 -0.16959,0.1404 -0.29019,0.2393 -0.44468,0.3669 l 9.39768,10.9472 -6.22038,5.3134 -9.80961,-11.8965 c -0.3522,0.1747 -0.571,0.2859 -1.0076,0.5034 -3.7224,1.2407 -7.2509,1.8608 -10.5854,1.8608 -7.7939,0 -14.3854,-3.0431 -19.775004,-9.1307 -5.2348,-6.0488 -7.8518,-13.7268 -7.8518,-23.032692 0,-1.667 0.085,-3.2796 0.2511,-4.841 2.0588,-24.4632 -1.3695,-37.4622 8.227504,-49.910199 -0.400304,11.842299 0.6752,21.495899 8.6593,20.900599 -2.8176,-16.2462 13.4914,-11.5755 2.5411,-34.184 z m -126.453904,1.185 c 1.388,0 2.6617,0.209 3.8216,0.627301 1.1787,0.399301 2.1865,0.979 3.0229,1.7394 0.8366,0.7606 1.4732,1.673201 1.9105,2.737799 0.4564,1.045801 0.6848,2.205602 0.6848,3.479401 0,3.4793 -2.6615,7.006399 -7.9852,10.580801 -0.3992,0.2662 -0.7509,0.504 -1.0551,0.7131 -0.3043,0.190098 -0.5609,0.361098 -0.77,0.513098 -1.8632,1.2929 -3.2702,2.4052 -4.2209,3.3368 -0.9509,0.9317 -1.5496,1.7303 -1.7967,2.3957 h 14.6584 c 0.5514,0 0.9319,-0.095 1.1412,-0.2852 0.228,-0.2092 0.4177,-0.5991 0.5699,-1.1695 h 0.8842 v 6.5309 h -23.899 c 0,-1.3689 0.1333,-2.5951 0.3995,-3.6788 0.2852,-1.0837 0.7128,-2.1103 1.2832,-3.08 0.5893,-0.9886 1.3211,-1.9488 2.1958,-2.8804 0.8745,-0.9316 1.9397,-1.920498 3.1946,-2.966198 0.4942,-0.4373 1.1028,-0.9125 1.8251,-1.425802 0.7226,-0.5324 1.5494,-1.131398 2.481,-1.796799 3.5936,-2.414601 5.3903,-4.5534 5.3903,-6.416601 0,-1.254799 -0.4185,-2.243698 -1.2551,-2.966299 -0.8367,-0.7224 -1.977,-1.083601 -3.4219,-1.083601 -1.7873,0 -3.4227,0.551402 -4.9056,1.654101 -1.5211,1.0458 -2.2818,2.0917 -2.2818,3.137299 0,0.209101 0.076,0.484601 0.2286,0.826802 0.038,0.038 0.057,0.076 0.057,0.1142 0,0.038 0.019,0.095 0.057,0.171098 l -0.5699,0.5989 -4.3352,-4.3351 0.4847,-0.7126 c 0.3424,-0.4944 0.9414,-1.169598 1.7968,-2.0252 0.3233,-0.304199 0.5895,-0.560898 0.7985,-0.769998 0.209,-0.2281 0.4088,-0.418402 0.599,-0.5705 2.4905,-1.9963 5.4949,-2.994102 9.0123,-2.994102 z m 17.1111,0.541502 h 22.5872 v 4.1925 l -10.8085,23.727798 c -0.1521,0.2661 -0.2286,0.5986 -0.2286,0.9978 0,0.4564 0.295,0.7606 0.8842,0.9126 v 0.8274 h -8.755 v -0.8274 c 0.6085,-0.19 1.0549,-0.5795 1.3401,-1.1689 l 0.114,-0.2284 11.2652,-23.527798 h -13.8888 c -0.5514,0 -0.9411,0.085 -1.1694,0.256399 -0.2091,0.171101 -0.3895,0.5704 -0.5414,1.197801 h -0.799 z m 38.7006,0 h 7.1297 v 0.798898 c -0.6276,0.171202 -1.0364,0.3609 -1.2263,0.57 -0.1903,0.209201 -0.2852,0.5896 -0.2852,1.141101 v 25.638199 c 0,0.5514 0.095,0.9318 0.2852,1.141 0.1899,0.2091 0.5987,0.3895 1.2263,0.5415 v 0.8274 h -8.5844 v -0.8274 c 0.6273,-0.152 1.0266,-0.323 1.1978,-0.5131 0.1709,-0.1901 0.2569,-0.58 0.2569,-1.1694 V 39.416599 h -1.3406 c -0.4752,0 -0.7983,0.1421 -0.9695,0.4273 -0.1712,0.266199 -0.3138,0.618 -0.4278,1.055301 h -0.77 v -7.728302 c 0.3231,0.038 0.6843,-0.104598 1.0835,-0.4278 0.4183,-0.323299 0.7983,-0.6751 1.1406,-1.055298 0.3612,-0.399201 0.6655,-0.760402 0.9126,-1.083601 z m 30.8859,0 h 10.3523 v 0.798898 c -0.6273,0.171202 -1.0361,0.3609 -1.2263,0.57 -0.19,0.209201 -0.2852,0.5896 -0.2852,1.141101 v 17.938399 h 1.2263 c 0.5702,0 0.9602,-0.095 1.1695,-0.2853 0.228,-0.2091 0.4183,-0.608398 0.5704,-1.197799 h 0.8268 v 6.131399 h -3.793 v 3.0515 c 0,0.5514 0.095,0.9318 0.2852,1.141 0.1902,0.2091 0.599,0.3895 1.2263,0.5415 v 0.8274 h -8.5272 v -0.8274 c 0.6276,-0.152 1.0363,-0.3324 1.2263,-0.5415 0.1902,-0.2092 0.2852,-0.5896 0.2852,-1.141 v -3.0515 h -15.4858 v -4.3062 l 12.7482,-18.109499 c 0.2281,-0.2662 0.3421,-0.522899 0.3421,-0.770001 0,-0.5324 -0.3138,-0.902899 -0.9411,-1.1121 z m 3.3935,6.245598 -10.0385,14.2596 h 10.0385 z m 44.301804,22.6183 c 1.7291,12.0763 -9.7792,15.3577 -7.7014,23.0249 -5.3605,-0.5374 -7.6285,-4.2029 -9.0729,-13.3051 -3.184004,14.3921 1.7076,19.9223 1.3716,25.3742 -0.4596,22.477192 12.4862,26.562192 19.8324,23.811392 0.071,-0.027 0.1471,-0.06 0.2212,-0.091 l -1.4796,-1.7953 c -2.7953,-1.531 -4.7336,-2.1038 -6.7013,-4.3614 -3.1811,-3.6571 -4.0601,-8.6455 -1.1081,-11.2133 2.9522,-2.567892 7.0112,-0.418796 10.1923,3.2386 1.9672,2.2625 2.0375,4.5297 3.3676,7.3478 l 2.109,2.4567 c 0.1217,-0.1196 0.2368,-0.2369 0.3405,-0.3504 6.8064,-8.1667 5.8571,-14.155096 5.779,-19.996192 -0.4236,-7.1721 -6.1992,-12.907 -0.63551,-21.5165 -0.038,0.2874 -6.89029,2.4714 -8.57489,9.2894 -3.058,-2.9556 -2.1558,-19.0926 -7.9399,-21.9139 z m -150.433304,6.0379 h 30.2442 c 6.3977,0 11.3414,1.396 14.831,4.1878 3.5285,2.7918 5.2927,6.7075 5.2927,11.7481 0,2.9857 -0.8527,5.5838 -2.5588,7.7939 -1.7063,2.2101 -4.265,4.0327 -7.6771,5.4673 4.11,1.2796 7.1924,3.2766 9.2474,5.990892 2.094,2.7142 3.1409,6.0681 3.1409,10.0619 0,5.1957 -1.8415,9.383 -5.5253,12.5625 -3.6446,3.1408 -8.5503,4.7114 -14.7153,4.7114 h -32.2797 v -1.6283 c 1.2409,-0.3102 2.036,-0.6593 2.3849,-1.047 0.3879,-0.4265 0.5813,-1.2407 0.5813,-2.4427 V 70.110298 c 0,-1.2407 -0.1934,-2.0741 -0.5813,-2.5006 -0.3489,-0.4266 -1.144,-0.7952 -2.3849,-1.1054 z m 61.8842,0 h 30.244 c 6.3979,0 11.3416,1.396 14.8312,4.1878 3.5285,2.7918 5.2927,6.7075 5.2927,11.7481 0,2.9857 -0.853,5.5838 -2.559,7.7939 -1.7061,2.2101 -4.2649,4.0327 -7.6772,5.4673 4.1103,1.2796 7.1924,3.2766 9.2477,5.990892 2.0937,2.7142 3.1409,6.0681 3.1409,10.0619 0,5.1957 -1.8418,9.383 -5.5253,12.5625 -3.6449,3.1408 -8.5503,4.7114 -14.7153,4.7114 h -32.2797 v -1.6283 c 1.2406,-0.3102 2.036,-0.6593 2.3847,-1.047 0.3879,-0.4265 0.5815,-1.2407 0.5815,-2.4427 V 70.110298 c 0,-1.2407 -0.1936,-2.0741 -0.5815,-2.5006 -0.3487,-0.4266 -1.1441,-0.7952 -2.3847,-1.1054 z m -46.9945,9.6547 v 15.0058 h 14.075 c 2.947,0 5.2539,-0.6784 6.921,-2.0356 1.6674,-1.3958 2.5011,-3.2959 2.5011,-5.6999 0,-2.2489 -0.8337,-4.0131 -2.5011,-5.2927 -1.6671,-1.3183 -3.9354,-1.9776 -6.8048,-1.9776 z m 61.8839,0 v 15.0058 h 14.075 c 2.947,0 5.2544,-0.6784 6.9218,-2.0356 1.6672,-1.3958 2.5006,-3.2959 2.5006,-5.6999 0,-2.2489 -0.8334,-4.0131 -2.5006,-5.2927 -1.6674,-1.3183 -3.9359,-1.9776 -6.8053,-1.9776 z m -61.8839,24.660496 v 18.437596 h 14.6568 c 3.5285,0 6.2035,-0.7755 8.0259,-2.3265 1.8614,-1.5898 2.7922,-3.8775 2.7922,-6.8631 0,-2.9081 -0.9888,-5.1767 -2.9663,-6.8053 -1.9775,-1.6285 -4.75,-2.442696 -8.3174,-2.442696 z m 61.8839,0 v 18.437596 h 14.6571 c 3.5285,0 6.2035,-0.7755 8.0259,-2.3265 1.8611,-1.5898 2.7919,-3.8775 2.7919,-6.8631 0,-2.9081 -0.9885,-5.1767 -2.9663,-6.8053 -1.9772,-1.6285 -4.75,-2.442696 -8.3171,-2.442696 z"
       style="fill:#000000;fill-opacity:1;fill-rule:evenodd;stroke-width:0.26458341"
       sodipodi:nodetypes="cccccccccccccccccccccccccccccccccccccccccccccccccccccccccccccccccccccccccccccccccccccccccccccccccccccccscccccccscsccccccccscccccscccccccccccscscscscccccccccccccscccccccsccccccccssccccccscsccccccccccccscscccccsccccccsccccscccccccccccccccccccccccccscscccscscccssccccscscccscscccsscccccscscscccscscscccscscscccscscsc" />
  </g>
</svg>
